<svg xmlns="http://www.w3.org/2000/svg" viewBox="0 0 48 48">
  <rect width="48" height="48" rx="8" fill="#0b0e14"/>
  <!-- IC package pins -->
  <g stroke="#4fc3e8" stroke-width="2" stroke-linecap="round">
    <line x1="14" y1="6" x2="14" y2="11"/>
    <line x1="24" y1="6" x2="24" y2="11"/>
    <line x1="34" y1="6" x2="34" y2="11"/>
    <line x1="14" y1="37" x2="14" y2="42"/>
    <line x1="24" y1="37" x2="24" y2="42"/>
    <line x1="34" y1="37" x2="34" y2="42"/>
    <line x1="6" y1="14" x2="11" y2="14"/>
    <line x1="6" y1="24" x2="11" y2="24"/>
    <line x1="6" y1="34" x2="11" y2="34"/>
    <line x1="37" y1="14" x2="42" y2="14"/>
    <line x1="37" y1="24" x2="42" y2="24"/>
    <line x1="37" y1="34" x2="42" y2="34"/>
  </g>
  <!-- die body -->
  <rect x="11" y="11" width="26" height="26" rx="2" fill="#131826" stroke="#232a3d" stroke-width="1.5"/>
  <!-- readout waveform -->
  <path d="M15 26 L19 26 L21.5 19 L25 33 L27.5 26 L33 26"
        fill="none" stroke="#4fc3e8" stroke-width="2.2"
        stroke-linecap="round" stroke-linejoin="round"/>
</svg>
