<svg xmlns="http://www.w3.org/2000/svg" xmlns:xlink="http://www.w3.org/1999/xlink" width="723.06" height="702.76" viewBox="143.19 -6.05 723.06 702.76" version="1.1">
<style type="text/css">
.l0{
 fill: #000000;
  stroke: #000000;
  stroke-linecap:round;
  stroke-linejoin:round;
  stroke-width: 1.81191;
}
.l1{
 fill: #00ccee;
  stroke: #00ccee;
  stroke-linecap:round;
  stroke-linejoin:round;
  stroke-width: 1.81191;
}
.l2{
  fill: none;
  stroke: #3f3f3f;
  stroke-linecap:round;
  stroke-linejoin:round;
  stroke-width: 1.81191;
}
.l3{
 fill: #cccccc; fill-opacity: 0.5;
  stroke: #cccccc;
  stroke-linecap:round;
  stroke-linejoin:round;
  stroke-width: 1.81191;
}
.l4{
 fill: #88dd00;
  stroke: #88dd00;
  stroke-linecap:round;
  stroke-linejoin:round;
  stroke-width: 1.81191;
}
.l5{
 fill: #bb2200;
  stroke: #bb2200;
  stroke-linecap:round;
  stroke-linejoin:round;
  stroke-width: 1.81191;
}
.l6{
 fill: #00ccee; fill-opacity: 0.5;
  stroke: #00ccee;
  stroke-linecap:round;
  stroke-linejoin:round;
  stroke-width: 1.81191;
}
.l7{
 fill: #ff0000; fill-opacity: 0.5;
  stroke: #ff0000;
  stroke-linecap:round;
  stroke-linejoin:round;
  stroke-width: 1.81191;
}
.l8{
 fill: #ffff00; fill-opacity: 0.5;
  stroke: #ffff00;
  stroke-linecap:round;
  stroke-linejoin:round;
  stroke-width: 1.81191;
}
.l9{
 fill: #ffffff; fill-opacity: 0.5;
  stroke: #ffffff;
  stroke-linecap:round;
  stroke-linejoin:round;
  stroke-width: 1.81191;
}
.l10{
 fill: #ff00ff;
  stroke: #ff00ff;
  stroke-linecap:round;
  stroke-linejoin:round;
  stroke-width: 1.81191;
}
.l11{
 fill: #00ff00; fill-opacity: 0.5;
  stroke: #00ff00;
  stroke-linecap:round;
  stroke-linejoin:round;
  stroke-width: 1.81191;
}
.l12{
 fill: #0044dd; fill-opacity: 0.5;
  stroke: #0044dd;
  stroke-linecap:round;
  stroke-linejoin:round;
  stroke-width: 1.81191;
}
.l13{
 fill: #aaaa00; fill-opacity: 0.5;
  stroke: #aaaa00;
  stroke-linecap:round;
  stroke-linejoin:round;
  stroke-width: 1.81191;
}
.l14{
  fill: none;
  stroke: #aaccaa;
  stroke-linecap:round;
  stroke-linejoin:round;
  stroke-width: 1.81191;
}
.l15{
 fill: #ff7777; fill-opacity: 0.5;
  stroke: #ff7777;
  stroke-linecap:round;
  stroke-linejoin:round;
  stroke-width: 1.81191;
}
.l16{
 fill: #bfff81; fill-opacity: 0.5;
  stroke: #bfff81;
  stroke-linecap:round;
  stroke-linejoin:round;
  stroke-width: 1.81191;
}
.l17{
  fill: none;
  stroke: #00ffcc;
  stroke-linecap:round;
  stroke-linejoin:round;
  stroke-width: 1.81191;
}
.l18{
 fill: #ce0097; fill-opacity: 0.5;
  stroke: #ce0097;
  stroke-linecap:round;
  stroke-linejoin:round;
  stroke-width: 1.81191;
}
.l19{
  fill: none;
  stroke: #d2d46b;
  stroke-linecap:round;
  stroke-linejoin:round;
  stroke-width: 1.81191;
}
.l20{
  fill: none;
  stroke: #ef6158;
  stroke-linecap:round;
  stroke-linejoin:round;
  stroke-width: 1.81191;
}
.l21{
  fill: none;
  stroke: #fdb200;
  stroke-linecap:round;
  stroke-linejoin:round;
  stroke-width: 1.81191;
}
text {font-family: Sans-Serif;}
</style>
<rect class="l0" x="143.19" y="-6.05" width="723.06" height="702.76"/>
<text fill="#00ccee"  xml:space="preserve" font-size="28.7893" transform="translate(157.094, 356.452)" >A</text>
<text fill="#00ccee"  xml:space="preserve" font-size="28.7893" transform="translate(834.491, 356.452)" >Z</text>
<text fill="#00ccee"  xml:space="preserve" font-size="28.7893" transform="translate(263.812, 36.6407)" >VDD</text>
<text fill="#00ccee"  xml:space="preserve" font-size="28.7893" transform="translate(263.812, 674.166)" >VSS</text>
<text fill="#00ccee"  xml:space="preserve" font-size="28.7893" transform="translate(779.966, 206.508)" >VDD</text>
<text fill="#00ccee"  xml:space="preserve" font-size="28.7893" transform="translate(779.966, 508.493)" >VSS</text>
<text fill="#cccccc"  xml:space="preserve" font-size="17.4481" transform="translate(463.586, 461.496)" >M1</text>
<text fill="#ff0000"  xml:space="preserve" font-size="13.086" transform="translate(503.146, 537.226)" >S</text>
<text fill="#ff0000"  xml:space="preserve" font-size="13.086" transform="translate(503.146, 463.497)" >D</text>
<text fill="#ff0000"  xml:space="preserve" font-size="13.086" transform="translate(498.951, 491.089)" >B</text>
<text fill="#ff0000"  xml:space="preserve" font-size="13.086" transform="translate(444.796, 491.089)" >G</text>
<text fill="#cccccc"  xml:space="preserve" font-size="17.4481" transform="translate(515.728, 477.134)" >nfet_01v8</text>
<text fill="#aaaa00"  xml:space="preserve" font-size="17.4481" transform="translate(517.826, 534.895)" >1 x W_N / L_N</text>
<text fill="#aaaa00"  xml:space="preserve" font-size="17.4481" transform="translate(517.826, 513.924)" >nf=1</text>
<text fill="#ff7777"  xml:space="preserve" font-size="4.36201" transform="translate(436.038, 533.499)" >?</text>
<text fill="#cccccc"  xml:space="preserve" font-size="17.4481" transform="translate(463.586, 159.51)" >M2</text>
<text fill="#ff0000"  xml:space="preserve" font-size="13.086" transform="translate(503.146, 235.24)" >D</text>
<text fill="#ff0000"  xml:space="preserve" font-size="13.086" transform="translate(503.146, 161.511)" >S</text>
<text fill="#ff0000"  xml:space="preserve" font-size="13.086" transform="translate(498.951, 189.103)" >B</text>
<text fill="#ff0000"  xml:space="preserve" font-size="13.086" transform="translate(444.796, 189.103)" >G</text>
<text fill="#cccccc"  xml:space="preserve" font-size="17.4481" transform="translate(515.728, 175.148)" >pfet_01v8</text>
<text fill="#aaaa00"  xml:space="preserve" font-size="17.4481" transform="translate(517.826, 232.909)" >1 x W_P / L_P</text>
<text fill="#aaaa00"  xml:space="preserve" font-size="17.4481" transform="translate(517.826, 211.938)" >nf=1</text>
<text fill="#ff7777"  xml:space="preserve" font-size="4.36201" transform="translate(436.038, 231.513)" >?</text>
<path class="l4" d="M477.98 458.236L477.98 533.732"/>
<path class="l4" d="M431.844 495.984L469.592 495.984"/>
<path class="l4" d="M498.951 445.653L498.951 466.624"/>
<path class="l4" d="M498.951 525.344L498.951 546.315"/>
<path class="l4" d="M469.592 470.818L469.592 521.149"/>
<path class="l4" d="M477.98 466.624L498.951 466.624"/>
<path class="l4" d="M477.98 525.344L490.563 525.344"/>
<path class="l4" d="M490.563 521.149L498.951 525.344L490.563 529.538L490.563 521.149"/>
<path class="l4" d="M477.98 156.25L477.98 231.746"/>
<path class="l4" d="M498.951 143.667L498.951 164.638"/>
<path class="l4" d="M498.951 223.358L498.951 244.329"/>
<path class="l4" d="M469.592 168.833L469.592 219.164"/>
<path class="l4" d="M477.98 223.358L498.951 223.358"/>
<path class="l4" d="M486.369 164.638L498.951 164.638"/>
<path class="l4" d="M431.844 193.998L452.815 193.998"/>
<path class="l4" d="M486.369 160.444L477.98 164.638L486.369 168.833L486.369 160.444"/>
<circle class="l4" cx="461.203" cy="193.998" r="8.38849" style="fill:none;"/>
<path class="l5" d="M188.577 344.991L196.966 344.991"/>
<path class="l5" d="M188.577 344.991L182.286 336.603L167.606 336.603L173.897 344.991L167.606 353.38L182.286 353.38L188.577 344.991"/>
<path class="l5" d="M194.869 342.894L199.063 342.894L199.063 347.088L194.869 347.088L194.869 342.894z"/>
<path class="l5" d="M800.937 344.991L815.617 344.991"/>
<path class="l5" d="M830.297 344.991L824.005 336.603L809.326 336.603L815.617 344.991L809.326 353.38L824.005 353.38L830.297 344.991"/>
<path class="l5" d="M798.84 342.894L803.034 342.894L803.034 347.088L798.84 347.088L798.84 342.894z"/>
<path class="l5" d="M230.52 26.2284L235.763 26.2284"/>
<path class="l5" d="M253.588 34.6169L259.879 26.2284L253.588 17.8399L242.054 17.8399L235.763 26.2284L242.054 34.6169L253.588 34.6169"/>
<path class="l5" d="M228.423 24.1313L232.617 24.1313L232.617 28.3255L228.423 28.3255L228.423 24.1313z"/>
<path class="l5" d="M230.52 663.754L235.763 663.754"/>
<path class="l5" d="M253.588 672.142L259.879 663.754L253.588 655.365L242.054 655.365L235.763 663.754L242.054 672.142L253.588 672.142"/>
<path class="l5" d="M228.423 661.657L232.617 661.657L232.617 665.851L228.423 665.851L228.423 661.657z"/>
<path class="l5" d="M765.286 191.901L769.48 191.901L769.48 196.095L765.286 196.095L765.286 191.901z"/>
<path class="l5" d="M765.286 493.887L769.48 493.887L769.48 498.081L765.286 498.081L765.286 493.887z"/>
<path class="l5" d="M498.951 491.79L490.563 495.984L498.951 500.178L498.951 491.79"/>
<path class="l5" d="M494.757 441.459L503.146 441.459L503.146 449.847L494.757 449.847L494.757 441.459z"/>
<path class="l5" d="M427.649 491.79L436.038 491.79L436.038 500.178L427.649 500.178L427.649 491.79z"/>
<path class="l5" d="M494.757 542.121L503.146 542.121L503.146 550.509L494.757 550.509L494.757 542.121z"/>
<path class="l5" d="M498.82 495.853L499.083 495.853L499.083 496.115L498.82 496.115L498.82 495.853z"/>
<path class="l5" d="M490.563 189.804L498.951 193.998L490.563 198.192L490.563 189.804"/>
<path class="l5" d="M494.757 240.135L503.146 240.135L503.146 248.523L494.757 248.523L494.757 240.135z"/>
<path class="l5" d="M427.649 189.804L436.038 189.804L436.038 198.192L427.649 198.192L427.649 189.804z"/>
<path class="l5" d="M494.757 139.473L503.146 139.473L503.146 147.862L494.757 147.862L494.757 139.473z"/>
<path class="l5" d="M498.82 193.867L499.083 193.867L499.083 194.129L498.82 194.129L498.82 193.867z"/>
<path class="l1" d="M230.52 26.2284L800.937 26.2284"/>
<path class="l1" d="M498.951 26.2284L498.951 143.667"/>
<path class="l1" d="M230.52 663.754L800.937 663.754"/>
<path class="l1" d="M498.951 546.315L498.951 663.754"/>
<path class="l1" d="M498.951 244.329L498.951 344.991"/>
<path class="l1" d="M498.951 344.991L498.951 445.653"/>
<path class="l1" d="M498.951 344.991L800.937 344.991"/>
<path class="l1" d="M196.966 344.991L331.182 344.991"/>
<path class="l1" d="M331.182 193.998L331.182 344.991"/>
<path class="l1" d="M331.182 344.991L331.182 495.984"/>
<path class="l1" d="M331.182 193.998L431.844 193.998"/>
<path class="l1" d="M331.182 495.984L431.844 495.984"/>
<path class="l1" d="M498.951 193.998L767.383 193.998"/>
<path class="l1" d="M498.951 495.984L767.383 495.984"/>
<circle class="l1" cx="498.951" cy="26.2284" r="6.71079"/>
<circle class="l1" cx="331.182" cy="344.991" r="6.71079"/>
<circle class="l1" cx="331.182" cy="344.991" r="6.71079"/>
<circle class="l1" cx="331.182" cy="344.991" r="6.71079"/>
<circle class="l1" cx="498.951" cy="344.991" r="6.71079"/>
<circle class="l1" cx="498.951" cy="344.991" r="6.71079"/>
<circle class="l1" cx="498.951" cy="344.991" r="6.71079"/>
<circle class="l1" cx="498.951" cy="663.754" r="6.71079"/>
</svg>
